<svg width="1440" height="268" viewBox="0 0 1440 268" fill="none" xmlns="http://www.w3.org/2000/svg">
<g opacity="0.1">
<path d="M112.989 226.483L112.909 226.287C112.274 224.723 111.261 223.339 109.96 222.261C108.66 221.183 107.113 220.444 105.458 220.108C103.803 219.773 102.09 219.853 100.473 220.341C98.8557 220.829 97.3844 221.709 96.1901 222.903L96.19 222.903L86.9081 232.184L86.9072 232.185C85.0733 234.013 84.0025 236.47 83.9114 239.059C83.8344 241.246 84.4622 243.39 85.6854 245.18C86.07 244.667 86.4911 244.181 86.9457 243.727L112.989 226.483ZM112.989 226.483C113.757 228.502 113.866 230.704 113.314 232.775C110.906 231.164 108.034 230.362 105.118 230.506C101.77 230.672 98.6028 232.075 96.2299 234.443L96.2292 234.444L86.9462 243.727L112.989 226.483Z" stroke="white" stroke-width="1.81013"/>
<path d="M87.8836 249.318L87.8822 249.321C87.0749 251.084 86.8255 253.051 87.1674 254.959C87.5093 256.868 88.4262 258.626 89.7951 259.998C89.7951 259.998 89.7952 259.999 89.7952 259.999L96.5008 266.719L112.499 250.721L87.8836 249.318ZM87.8836 249.318C87.9328 249.21 87.9787 249.112 88.0263 249.019C88.0348 249.003 88.043 248.986 88.0511 248.971C88.1006 248.874 88.143 248.792 88.1885 248.708C88.6201 247.924 89.1606 247.204 89.7941 246.571L89.7944 246.571M87.8836 249.318L89.7944 246.571M89.7944 246.571L99.0783 237.287C99.0785 237.287 99.0787 237.287 99.0789 237.287C100.799 235.573 103.108 234.582 105.535 234.516C107.962 234.45 110.321 235.315 112.131 236.932C112.22 237.012 112.299 237.085 112.374 237.159L112.374 237.159M89.7944 246.571L112.374 237.159M112.374 237.159L112.379 237.164M112.374 237.159L112.379 237.164M112.379 237.164L112.508 237.288M112.379 237.164L112.508 237.288M112.508 237.288L112.624 237.407C112.625 237.408 112.625 237.408 112.626 237.409C114.351 239.203 115.304 241.601 115.28 244.089C115.257 246.578 114.259 248.959 112.5 250.72L112.508 237.288Z" stroke="#F3F3F3" stroke-width="1.81013"/>
</g>
<g opacity="0.1">
<path d="M341.989 177.483L341.909 177.287C341.274 175.723 340.261 174.339 338.96 173.261C337.66 172.183 336.113 171.444 334.458 171.108C332.803 170.773 331.09 170.853 329.473 171.341C327.856 171.829 326.384 172.709 325.19 173.903L325.19 173.903L315.908 183.184L315.907 183.185C314.073 185.013 313.002 187.47 312.911 190.059C312.834 192.246 313.462 194.39 314.685 196.18C315.07 195.667 315.491 195.181 315.946 194.727L341.989 177.483ZM341.989 177.483C342.757 179.502 342.866 181.704 342.314 183.775C339.906 182.164 337.034 181.362 334.118 181.506C330.77 181.672 327.603 183.075 325.23 185.443L325.229 185.444L315.946 194.727L341.989 177.483Z" stroke="white" stroke-width="1.81013"/>
<path d="M316.884 200.318L316.882 200.321C316.075 202.084 315.826 204.051 316.167 205.959C316.509 207.868 317.426 209.626 318.795 210.998C318.795 210.998 318.795 210.999 318.795 210.999L325.501 217.719L341.499 201.721L316.884 200.318ZM316.884 200.318C316.933 200.21 316.979 200.112 317.026 200.019C317.035 200.003 317.043 199.986 317.051 199.971C317.101 199.874 317.143 199.792 317.189 199.708C317.62 198.924 318.161 198.204 318.794 197.571L318.794 197.571M316.884 200.318L318.794 197.571M318.794 197.571L328.078 188.287C328.079 188.287 328.079 188.287 328.079 188.287C329.799 186.573 332.108 185.582 334.535 185.516C336.962 185.45 339.321 186.315 341.131 187.932C341.22 188.012 341.299 188.085 341.374 188.159L341.374 188.159M318.794 197.571L341.374 188.159M341.374 188.159L341.379 188.164M341.374 188.159L341.379 188.164M341.379 188.164L341.508 188.288M341.379 188.164L341.508 188.288M341.508 188.288L341.624 188.407C341.625 188.408 341.625 188.408 341.626 188.409C343.351 190.203 344.304 192.601 344.28 195.089C344.257 197.578 343.259 199.959 341.5 201.72L341.508 188.288Z" stroke="#F3F3F3" stroke-width="1.81013"/>
</g>
<g opacity="0.1">
<path d="M159.989 34.4831L159.909 34.2874C159.274 32.7226 158.261 31.3394 156.96 30.2613C155.66 29.1832 154.113 28.4436 152.458 28.1085C150.803 27.7734 149.09 27.8532 147.473 28.3409C145.856 28.8285 144.384 29.7088 143.19 30.9032L143.19 30.9033L133.908 40.1838L133.907 40.1847C132.073 42.0134 131.002 44.4704 130.911 47.0587C130.834 49.2463 131.462 51.3896 132.685 53.18C133.07 52.6667 133.491 52.181 133.946 51.727L159.989 34.4831ZM159.989 34.4831C160.757 36.5019 160.866 38.7038 160.314 40.7752C157.906 39.1642 155.034 38.3617 152.118 38.5062C148.77 38.6721 145.603 40.0749 143.23 42.4428L143.229 42.4435L133.946 51.7266L159.989 34.4831Z" stroke="white" stroke-width="1.81013"/>
<path d="M134.884 57.3182L134.882 57.3214C134.075 59.084 133.826 61.0511 134.167 62.9594C134.509 64.8676 135.426 66.6258 136.795 67.9985C136.795 67.9985 136.795 67.9985 136.795 67.9986L143.501 74.7194L159.499 58.7207L134.884 57.3182ZM134.884 57.3182C134.933 57.2098 134.979 57.1118 135.026 57.0191C135.035 57.0025 135.043 56.9864 135.051 56.9707C135.101 56.8742 135.143 56.7915 135.189 56.7084C135.62 55.9238 136.161 55.2043 136.794 54.5715L136.794 54.5712M134.884 57.3182L136.794 54.5712M136.794 54.5712L146.078 45.2872C146.079 45.287 146.079 45.2868 146.079 45.2866C147.799 43.573 150.108 42.5817 152.535 42.516C154.962 42.4503 157.321 43.3147 159.131 44.9323C159.22 45.0124 159.299 45.0849 159.374 45.1585L159.374 45.1585M136.794 54.5712L159.374 45.1585M159.374 45.1585L159.379 45.1638M159.374 45.1585L159.379 45.1638M159.379 45.1638L159.508 45.2879M159.379 45.1638L159.508 45.2879M159.508 45.2879L159.624 45.4068C159.625 45.4077 159.625 45.4085 159.626 45.4093C161.351 47.2029 162.304 49.601 162.28 52.0891C162.257 54.5782 161.259 56.959 159.5 58.7203L159.508 45.2879Z" stroke="#F3F3F3" stroke-width="1.81013"/>
</g>
<g opacity="0.1">
<path d="M189.989 168.483L189.909 168.287C189.274 166.723 188.261 165.339 186.96 164.261C185.66 163.183 184.113 162.444 182.458 162.108C180.803 161.773 179.09 161.853 177.473 162.341C175.856 162.829 174.384 163.709 173.19 164.903L173.19 164.903L163.908 174.184L163.907 174.185C162.073 176.013 161.002 178.47 160.911 181.059C160.834 183.246 161.462 185.39 162.685 187.18C163.07 186.667 163.491 186.181 163.946 185.727L189.989 168.483ZM189.989 168.483C190.757 170.502 190.866 172.704 190.314 174.775C187.906 173.164 185.034 172.362 182.118 172.506C178.77 172.672 175.603 174.075 173.23 176.443L173.229 176.444L163.946 185.727L189.989 168.483Z" stroke="white" stroke-width="1.81013"/>
<path d="M164.884 191.318L164.882 191.321C164.075 193.084 163.826 195.051 164.167 196.959C164.509 198.868 165.426 200.626 166.795 201.998C166.795 201.998 166.795 201.999 166.795 201.999L173.501 208.719L189.499 192.721L164.884 191.318ZM164.884 191.318C164.933 191.21 164.979 191.112 165.026 191.019C165.035 191.003 165.043 190.986 165.051 190.971C165.101 190.874 165.143 190.792 165.189 190.708C165.62 189.924 166.161 189.204 166.794 188.571L166.794 188.571M164.884 191.318L166.794 188.571M166.794 188.571L176.078 179.287C176.079 179.287 176.079 179.287 176.079 179.287C177.799 177.573 180.108 176.582 182.535 176.516C184.962 176.45 187.321 177.315 189.131 178.932C189.22 179.012 189.299 179.085 189.374 179.159L189.374 179.159M166.794 188.571L189.374 179.159M189.374 179.159L189.379 179.164M189.374 179.159L189.379 179.164M189.379 179.164L189.508 179.288M189.379 179.164L189.508 179.288M189.508 179.288L189.624 179.407C189.625 179.408 189.625 179.408 189.626 179.409C191.351 181.203 192.304 183.601 192.28 186.089C192.257 188.578 191.259 190.959 189.5 192.72L189.508 179.288Z" stroke="#F3F3F3" stroke-width="1.81013"/>
</g>
<g opacity="0.1">
<path d="M29.9889 158.483L29.9094 158.287C29.2737 156.723 28.2606 155.339 26.9604 154.261C25.6602 153.183 24.1134 152.444 22.458 152.108C20.8025 151.773 19.0899 151.853 17.4728 152.341C15.8557 152.829 14.3844 153.709 13.1901 154.903L13.19 154.903L3.90808 164.184L3.90722 164.185C2.07329 166.013 1.00246 168.47 0.911389 171.059C0.834421 173.246 1.46221 175.39 2.68536 177.18C3.06997 176.667 3.49111 176.181 3.94574 175.727L29.9889 158.483ZM29.9889 158.483C30.7572 160.502 30.8658 162.704 30.3136 164.775C27.9063 163.164 25.0342 162.362 22.1184 162.506C18.7702 162.672 15.6028 164.075 13.2299 166.443L13.2292 166.444L3.94618 175.727L29.9889 158.483Z" stroke="white" stroke-width="1.81013"/>
<path d="M4.88363 181.318L4.88218 181.321C4.07491 183.084 3.82554 185.051 4.16745 186.959C4.50935 188.868 5.42616 190.626 6.7951 191.998C6.79515 191.998 6.79519 191.999 6.79523 191.999L13.5008 198.719L29.4995 182.721L4.88363 181.318ZM4.88363 181.318C4.93275 181.21 4.97869 181.112 5.02628 181.019C5.03477 181.003 5.04304 180.986 5.05112 180.971C5.10056 180.874 5.14298 180.792 5.1885 180.708C5.62005 179.924 6.16062 179.204 6.79408 178.571L6.79438 178.571M4.88363 181.318L6.79438 178.571M6.79438 178.571L16.0783 169.287C16.0785 169.287 16.0787 169.287 16.0789 169.287C17.7986 167.573 20.1084 166.582 22.5352 166.516C24.9617 166.45 27.3215 167.315 29.1313 168.932C29.22 169.012 29.2989 169.085 29.3738 169.159L29.3737 169.159M6.79438 178.571L29.3737 169.159M29.3737 169.159L29.3791 169.164M29.3737 169.159L29.3791 169.164M29.3791 169.164L29.5076 169.288M29.3791 169.164L29.5076 169.288M29.5076 169.288L29.6238 169.407C29.6246 169.408 29.6254 169.408 29.6262 169.409C31.3506 171.203 32.3035 173.601 32.2803 176.089C32.2571 178.578 31.2588 180.959 29.4999 182.72L29.5076 169.288Z" stroke="#F3F3F3" stroke-width="1.81013"/>
</g>
<g opacity="0.1">
<path d="M342.989 3.48308L342.909 3.28741C342.274 1.72259 341.261 0.339428 339.96 -0.738703C338.66 -1.81683 337.113 -2.55642 335.458 -2.8915C333.803 -3.22659 332.09 -3.14676 330.473 -2.65911C328.856 -2.17147 327.384 -1.29119 326.19 -0.0967693L326.19 -0.0966682L316.908 9.1838L316.907 9.18466C315.073 11.0134 314.002 13.4704 313.911 16.0587C313.834 18.2463 314.462 20.3896 315.685 22.18C316.07 21.6667 316.491 21.181 316.946 20.727L342.989 3.48308ZM342.989 3.48308C343.757 5.50194 343.866 7.70377 343.314 9.77518C340.906 8.16419 338.034 7.36166 335.118 7.50616C331.77 7.67208 328.603 9.07489 326.23 11.4428L326.229 11.4435L316.946 20.7266L342.989 3.48308Z" stroke="white" stroke-width="1.81013"/>
<path d="M317.884 26.3182L317.882 26.3214C317.075 28.084 316.826 30.0511 317.167 31.9594C317.509 33.8676 318.426 35.6258 319.795 36.9985C319.795 36.9985 319.795 36.9985 319.795 36.9986L326.501 43.7194L342.499 27.7207L317.884 26.3182ZM317.884 26.3182C317.933 26.2098 317.979 26.1118 318.026 26.0191C318.035 26.0025 318.043 25.9864 318.051 25.9707C318.101 25.8742 318.143 25.7915 318.189 25.7084C318.62 24.9238 319.161 24.2043 319.794 23.5715L319.794 23.5712M317.884 26.3182L319.794 23.5712M319.794 23.5712L329.078 14.2872C329.079 14.287 329.079 14.2868 329.079 14.2866C330.799 12.573 333.108 11.5817 335.535 11.516C337.962 11.4503 340.321 12.3147 342.131 13.9323C342.22 14.0124 342.299 14.0849 342.374 14.1585L342.374 14.1585M319.794 23.5712L342.374 14.1585M342.374 14.1585L342.379 14.1638M342.374 14.1585L342.379 14.1638M342.379 14.1638L342.508 14.2879M342.379 14.1638L342.508 14.2879M342.508 14.2879L342.624 14.4068C342.625 14.4077 342.625 14.4085 342.626 14.4093C344.351 16.2029 345.304 18.601 345.28 21.0891C345.257 23.5782 344.259 25.959 342.5 27.7203L342.508 14.2879Z" stroke="#F3F3F3" stroke-width="1.81013"/>
</g>
<g opacity="0.1">
<path d="M274.989 74.4831L274.909 74.2874C274.274 72.7226 273.261 71.3394 271.96 70.2613C270.66 69.1832 269.113 68.4436 267.458 68.1085C265.803 67.7734 264.09 67.8532 262.473 68.3409C260.856 68.8285 259.384 69.7088 258.19 70.9032L258.19 70.9033L248.908 80.1838L248.907 80.1847C247.073 82.0134 246.002 84.4704 245.911 87.0587C245.834 89.2463 246.462 91.3896 247.685 93.18C248.07 92.6667 248.491 92.181 248.946 91.727L274.989 74.4831ZM274.989 74.4831C275.757 76.5019 275.866 78.7038 275.314 80.7752C272.906 79.1642 270.034 78.3617 267.118 78.5062C263.77 78.6721 260.603 80.0749 258.23 82.4428L258.229 82.4435L248.946 91.7266L274.989 74.4831Z" stroke="white" stroke-width="1.81013"/>
<path d="M249.884 97.3182L249.882 97.3214C249.075 99.084 248.826 101.051 249.167 102.959C249.509 104.868 250.426 106.626 251.795 107.998C251.795 107.998 251.795 107.999 251.795 107.999L258.501 114.719L274.499 98.7207L249.884 97.3182ZM249.884 97.3182C249.933 97.2098 249.979 97.1118 250.026 97.0191C250.035 97.0025 250.043 96.9864 250.051 96.9707C250.101 96.8742 250.143 96.7915 250.189 96.7084C250.62 95.9238 251.161 95.2043 251.794 94.5715L251.794 94.5712M249.884 97.3182L251.794 94.5712M251.794 94.5712L261.078 85.2872C261.079 85.287 261.079 85.2868 261.079 85.2866C262.799 83.573 265.108 82.5817 267.535 82.516C269.962 82.4503 272.321 83.3147 274.131 84.9323C274.22 85.0124 274.299 85.0849 274.374 85.1585L274.374 85.1585M251.794 94.5712L274.374 85.1585M274.374 85.1585L274.379 85.1638M274.374 85.1585L274.379 85.1638M274.379 85.1638L274.508 85.2879M274.379 85.1638L274.508 85.2879M274.508 85.2879L274.624 85.4068C274.625 85.4077 274.625 85.4085 274.626 85.4093C276.351 87.2029 277.304 89.601 277.28 92.0891C277.257 94.5782 276.259 96.959 274.5 98.7203L274.508 85.2879Z" stroke="#F3F3F3" stroke-width="1.81013"/>
</g>
<g opacity="0.1">
<path d="M486.989 153.483L486.909 153.287C486.274 151.723 485.261 150.339 483.96 149.261C482.66 148.183 481.113 147.444 479.458 147.108C477.803 146.773 476.09 146.853 474.473 147.341C472.856 147.829 471.384 148.709 470.19 149.903L470.19 149.903L460.908 159.184L460.907 159.185C459.073 161.013 458.002 163.47 457.911 166.059C457.834 168.246 458.462 170.39 459.685 172.18C460.07 171.667 460.491 171.181 460.946 170.727L486.989 153.483ZM486.989 153.483C487.757 155.502 487.866 157.704 487.314 159.775C484.906 158.164 482.034 157.362 479.118 157.506C475.77 157.672 472.603 159.075 470.23 161.443L470.229 161.444L460.946 170.727L486.989 153.483Z" stroke="white" stroke-width="1.81013"/>
<path d="M461.884 176.318L461.882 176.321C461.075 178.084 460.826 180.051 461.167 181.959C461.509 183.868 462.426 185.626 463.795 186.998C463.795 186.998 463.795 186.999 463.795 186.999L470.501 193.719L486.499 177.721L461.884 176.318ZM461.884 176.318C461.933 176.21 461.979 176.112 462.026 176.019C462.035 176.003 462.043 175.986 462.051 175.971C462.101 175.874 462.143 175.792 462.189 175.708C462.62 174.924 463.161 174.204 463.794 173.571L463.794 173.571M461.884 176.318L463.794 173.571M463.794 173.571L473.078 164.287C473.079 164.287 473.079 164.287 473.079 164.287C474.799 162.573 477.108 161.582 479.535 161.516C481.962 161.45 484.321 162.315 486.131 163.932C486.22 164.012 486.299 164.085 486.374 164.159L486.374 164.159M463.794 173.571L486.374 164.159M486.374 164.159L486.379 164.164M486.374 164.159L486.379 164.164M486.379 164.164L486.508 164.288M486.379 164.164L486.508 164.288M486.508 164.288L486.624 164.407C486.625 164.408 486.625 164.408 486.626 164.409C488.351 166.203 489.304 168.601 489.28 171.089C489.257 173.578 488.259 175.959 486.5 177.72L486.508 164.288Z" stroke="#F3F3F3" stroke-width="1.81013"/>
</g>
<g opacity="0.1">
<path d="M715.989 104.483L715.909 104.287C715.274 102.723 714.261 101.339 712.96 100.261C711.66 99.1832 710.113 98.4436 708.458 98.1085C706.803 97.7734 705.09 97.8532 703.473 98.3409C701.856 98.8285 700.384 99.7088 699.19 100.903L699.19 100.903L689.908 110.184L689.907 110.185C688.073 112.013 687.002 114.47 686.911 117.059C686.834 119.246 687.462 121.39 688.685 123.18C689.07 122.667 689.491 122.181 689.946 121.727L715.989 104.483ZM715.989 104.483C716.757 106.502 716.866 108.704 716.314 110.775C713.906 109.164 711.034 108.362 708.118 108.506C704.77 108.672 701.603 110.075 699.23 112.443L699.229 112.444L689.946 121.727L715.989 104.483Z" stroke="white" stroke-width="1.81013"/>
<path d="M690.884 127.318L690.882 127.321C690.075 129.084 689.826 131.051 690.167 132.959C690.509 134.868 691.426 136.626 692.795 137.998C692.795 137.998 692.795 137.999 692.795 137.999L699.501 144.719L715.499 128.721L690.884 127.318ZM690.884 127.318C690.933 127.21 690.979 127.112 691.026 127.019C691.035 127.003 691.043 126.986 691.051 126.971C691.101 126.874 691.143 126.792 691.189 126.708C691.62 125.924 692.161 125.204 692.794 124.571L692.794 124.571M690.884 127.318L692.794 124.571M692.794 124.571L702.078 115.287C702.079 115.287 702.079 115.287 702.079 115.287C703.799 113.573 706.108 112.582 708.535 112.516C710.962 112.45 713.321 113.315 715.131 114.932C715.22 115.012 715.299 115.085 715.374 115.159L715.374 115.159M692.794 124.571L715.374 115.159M715.374 115.159L715.379 115.164M715.374 115.159L715.379 115.164M715.379 115.164L715.508 115.288M715.379 115.164L715.508 115.288M715.508 115.288L715.624 115.407C715.625 115.408 715.625 115.408 715.626 115.409C717.351 117.203 718.304 119.601 718.28 122.089C718.257 124.578 717.259 126.959 715.5 128.72L715.508 115.288Z" stroke="#F3F3F3" stroke-width="1.81013"/>
</g>
<g opacity="0.1">
<path d="M508.884 -15.6818L508.882 -15.6786C508.075 -13.916 507.826 -11.9489 508.167 -10.0406C508.509 -8.13237 509.426 -6.37419 510.795 -5.00154C510.795 -5.0015 510.795 -5.00146 510.795 -5.00142L517.501 1.71936L533.499 -14.2793L508.884 -15.6818ZM508.884 -15.6818C508.933 -15.7902 508.979 -15.8882 509.026 -15.9809C509.035 -15.9975 509.043 -16.0136 509.051 -16.0293C509.101 -16.1258 509.143 -16.2085 509.189 -16.2916C509.62 -17.0762 510.161 -17.7957 510.794 -18.4285L510.794 -18.4288M508.884 -15.6818L510.794 -18.4288M510.794 -18.4288L520.078 -27.7128C520.079 -27.713 520.079 -27.7132 520.079 -27.7134C521.799 -29.427 524.108 -30.4183 526.535 -30.484C528.962 -30.5497 531.321 -29.6853 533.131 -28.0677C533.22 -27.9876 533.299 -27.9151 533.374 -27.8415L533.374 -27.8415M510.794 -18.4288L533.374 -27.8415M533.374 -27.8415L533.379 -27.8362M533.374 -27.8415L533.379 -27.8362M533.379 -27.8362L533.508 -27.7121M533.379 -27.8362L533.508 -27.7121M533.508 -27.7121L533.624 -27.5932C533.625 -27.5923 533.625 -27.5915 533.626 -27.5907C535.351 -25.7971 536.304 -23.399 536.28 -20.9109C536.257 -18.4218 535.259 -16.041 533.5 -14.2797L533.508 -27.7121Z" stroke="#F3F3F3" stroke-width="1.81013"/>
</g>
<g opacity="0.1">
<path d="M563.989 95.4831L563.909 95.2874C563.274 93.7226 562.261 92.3394 560.96 91.2613C559.66 90.1832 558.113 89.4436 556.458 89.1085C554.803 88.7734 553.09 88.8532 551.473 89.3409C549.856 89.8285 548.384 90.7088 547.19 91.9032L547.19 91.9033L537.908 101.184L537.907 101.185C536.073 103.013 535.002 105.47 534.911 108.059C534.834 110.246 535.462 112.39 536.685 114.18C537.07 113.667 537.491 113.181 537.946 112.727L563.989 95.4831ZM563.989 95.4831C564.757 97.5019 564.866 99.7038 564.314 101.775C561.906 100.164 559.034 99.3617 556.118 99.5062C552.77 99.6721 549.603 101.075 547.23 103.443L547.229 103.444L537.946 112.727L563.989 95.4831Z" stroke="white" stroke-width="1.81013"/>
<path d="M538.884 118.318L538.882 118.321C538.075 120.084 537.826 122.051 538.167 123.959C538.509 125.868 539.426 127.626 540.795 128.998C540.795 128.998 540.795 128.999 540.795 128.999L547.501 135.719L563.499 119.721L538.884 118.318ZM538.884 118.318C538.933 118.21 538.979 118.112 539.026 118.019C539.035 118.003 539.043 117.986 539.051 117.971C539.101 117.874 539.143 117.792 539.189 117.708C539.62 116.924 540.161 116.204 540.794 115.571L540.794 115.571M538.884 118.318L540.794 115.571M540.794 115.571L550.078 106.287C550.079 106.287 550.079 106.287 550.079 106.287C551.799 104.573 554.108 103.582 556.535 103.516C558.962 103.45 561.321 104.315 563.131 105.932C563.22 106.012 563.299 106.085 563.374 106.159L563.374 106.159M540.794 115.571L563.374 106.159M563.374 106.159L563.379 106.164M563.374 106.159L563.379 106.164M563.379 106.164L563.508 106.288M563.379 106.164L563.508 106.288M563.508 106.288L563.624 106.407C563.625 106.408 563.625 106.408 563.626 106.409C565.351 108.203 566.304 110.601 566.28 113.089C566.257 115.578 565.259 117.959 563.5 119.72L563.508 106.288Z" stroke="#F3F3F3" stroke-width="1.81013"/>
</g>
<g opacity="0.1">
<path d="M403.989 85.4831L403.909 85.2874C403.274 83.7226 402.261 82.3394 400.96 81.2613C399.66 80.1832 398.113 79.4436 396.458 79.1085C394.803 78.7734 393.09 78.8532 391.473 79.3409C389.856 79.8285 388.384 80.7088 387.19 81.9032L387.19 81.9033L377.908 91.1838L377.907 91.1847C376.073 93.0134 375.002 95.4704 374.911 98.0587C374.834 100.246 375.462 102.39 376.685 104.18C377.07 103.667 377.491 103.181 377.946 102.727L403.989 85.4831ZM403.989 85.4831C404.757 87.5019 404.866 89.7038 404.314 91.7752C401.906 90.1642 399.034 89.3617 396.118 89.5062C392.77 89.6721 389.603 91.0749 387.23 93.4428L387.229 93.4435L377.946 102.727L403.989 85.4831Z" stroke="white" stroke-width="1.81013"/>
<path d="M378.884 108.318L378.882 108.321C378.075 110.084 377.826 112.051 378.167 113.959C378.509 115.868 379.426 117.626 380.795 118.998C380.795 118.998 380.795 118.999 380.795 118.999L387.501 125.719L403.499 109.721L378.884 108.318ZM378.884 108.318C378.933 108.21 378.979 108.112 379.026 108.019C379.035 108.003 379.043 107.986 379.051 107.971C379.101 107.874 379.143 107.792 379.189 107.708C379.62 106.924 380.161 106.204 380.794 105.571L380.794 105.571M378.884 108.318L380.794 105.571M380.794 105.571L390.078 96.2872C390.079 96.287 390.079 96.2868 390.079 96.2866C391.799 94.573 394.108 93.5817 396.535 93.516C398.962 93.4503 401.321 94.3147 403.131 95.9323C403.22 96.0124 403.299 96.0849 403.374 96.1585L403.374 96.1585M380.794 105.571L403.374 96.1585M403.374 96.1585L403.379 96.1638M403.374 96.1585L403.379 96.1638M403.379 96.1638L403.508 96.2879M403.379 96.1638L403.508 96.2879M403.508 96.2879L403.624 96.4068C403.625 96.4077 403.625 96.4085 403.626 96.4093C405.351 98.2029 406.304 100.601 406.28 103.089C406.257 105.578 405.259 107.959 403.5 109.72L403.508 96.2879Z" stroke="#F3F3F3" stroke-width="1.81013"/>
</g>
<g opacity="0.1">
<path d="M648.989 1.48308L648.909 1.28741C648.274 -0.277412 647.261 -1.66057 645.96 -2.7387C644.66 -3.81683 643.113 -4.55642 641.458 -4.8915C639.803 -5.22659 638.09 -5.14676 636.473 -4.65911C634.856 -4.17147 633.384 -3.29119 632.19 -2.09677L632.19 -2.09667L622.908 7.1838L622.907 7.18466C621.073 9.01338 620.002 11.4704 619.911 14.0587C619.834 16.2463 620.462 18.3896 621.685 20.18C622.07 19.6667 622.491 19.181 622.946 18.727L648.989 1.48308ZM648.989 1.48308C649.757 3.50194 649.866 5.70377 649.314 7.77518C646.906 6.16419 644.034 5.36166 641.118 5.50616C637.77 5.67208 634.603 7.07489 632.23 9.44283L632.229 9.44351L622.946 18.7266L648.989 1.48308Z" stroke="white" stroke-width="1.81013"/>
<path d="M623.884 24.3182L623.882 24.3214C623.075 26.084 622.826 28.0511 623.167 29.9594C623.509 31.8676 624.426 33.6258 625.795 34.9985C625.795 34.9985 625.795 34.9985 625.795 34.9986L632.501 41.7194L648.499 25.7207L623.884 24.3182ZM623.884 24.3182C623.933 24.2098 623.979 24.1118 624.026 24.0191C624.035 24.0025 624.043 23.9864 624.051 23.9707C624.101 23.8742 624.143 23.7915 624.189 23.7084C624.62 22.9238 625.161 22.2043 625.794 21.5715L625.794 21.5712M623.884 24.3182L625.794 21.5712M625.794 21.5712L635.078 12.2872C635.079 12.287 635.079 12.2868 635.079 12.2866C636.799 10.573 639.108 9.58171 641.535 9.51598C643.962 9.45025 646.321 10.3147 648.131 11.9323C648.22 12.0124 648.299 12.0849 648.374 12.1585L648.374 12.1585M625.794 21.5712L648.374 12.1585M648.374 12.1585L648.379 12.1638M648.374 12.1585L648.379 12.1638M648.379 12.1638L648.508 12.2879M648.379 12.1638L648.508 12.2879M648.508 12.2879L648.624 12.4068C648.625 12.4077 648.625 12.4085 648.626 12.4093C650.351 14.2029 651.304 16.601 651.28 19.0891C651.257 21.5782 650.259 23.959 648.5 25.7203L648.508 12.2879Z" stroke="#F3F3F3" stroke-width="1.81013"/>
</g>
<g opacity="0.1">
<path d="M649.989 189.483L649.909 189.287C649.274 187.723 648.261 186.339 646.96 185.261C645.66 184.183 644.113 183.444 642.458 183.108C640.803 182.773 639.09 182.853 637.473 183.341C635.856 183.829 634.384 184.709 633.19 185.903L633.19 185.903L623.908 195.184L623.907 195.185C622.073 197.013 621.002 199.47 620.911 202.059C620.834 204.246 621.462 206.39 622.685 208.18C623.07 207.667 623.491 207.181 623.946 206.727L649.989 189.483ZM649.989 189.483C650.757 191.502 650.866 193.704 650.314 195.775C647.906 194.164 645.034 193.362 642.118 193.506C638.77 193.672 635.603 195.075 633.23 197.443L633.229 197.444L623.946 206.727L649.989 189.483Z" stroke="white" stroke-width="1.81013"/>
<path d="M624.884 212.318L624.882 212.321C624.075 214.084 623.826 216.051 624.167 217.959C624.509 219.868 625.426 221.626 626.795 222.998C626.795 222.998 626.795 222.999 626.795 222.999L633.501 229.719L649.499 213.721L624.884 212.318ZM624.884 212.318C624.933 212.21 624.979 212.112 625.026 212.019C625.035 212.003 625.043 211.986 625.051 211.971C625.101 211.874 625.143 211.792 625.189 211.708C625.62 210.924 626.161 210.204 626.794 209.571L626.794 209.571M624.884 212.318L626.794 209.571M626.794 209.571L636.078 200.287C636.079 200.287 636.079 200.287 636.079 200.287C637.799 198.573 640.108 197.582 642.535 197.516C644.962 197.45 647.321 198.315 649.131 199.932C649.22 200.012 649.299 200.085 649.374 200.159L649.374 200.159M626.794 209.571L649.374 200.159M649.374 200.159L649.379 200.164M649.374 200.159L649.379 200.164M649.379 200.164L649.508 200.288M649.379 200.164L649.508 200.288M649.508 200.288L649.624 200.407C649.625 200.408 649.625 200.408 649.626 200.409C651.351 202.203 652.304 204.601 652.28 207.089C652.257 209.578 651.259 211.959 649.5 213.72L649.508 200.288Z" stroke="#F3F3F3" stroke-width="1.81013"/>
</g>
<g opacity="0.1">
<path d="M832.989 158.483L832.909 158.287C832.274 156.723 831.261 155.339 829.96 154.261C828.66 153.183 827.113 152.444 825.458 152.108C823.803 151.773 822.09 151.853 820.473 152.341C818.856 152.829 817.384 153.709 816.19 154.903L816.19 154.903L806.908 164.184L806.907 164.185C805.073 166.013 804.002 168.47 803.911 171.059C803.834 173.246 804.462 175.39 805.685 177.18C806.07 176.667 806.491 176.181 806.946 175.727L832.989 158.483ZM832.989 158.483C833.757 160.502 833.866 162.704 833.314 164.775C830.906 163.164 828.034 162.362 825.118 162.506C821.77 162.672 818.603 164.075 816.23 166.443L816.229 166.444L806.946 175.727L832.989 158.483Z" stroke="white" stroke-width="1.81013"/>
<path d="M807.884 181.318L807.882 181.321C807.075 183.084 806.826 185.051 807.167 186.959C807.509 188.868 808.426 190.626 809.795 191.998C809.795 191.998 809.795 191.999 809.795 191.999L816.501 198.719L832.499 182.721L807.884 181.318ZM807.884 181.318C807.933 181.21 807.979 181.112 808.026 181.019C808.035 181.003 808.043 180.986 808.051 180.971C808.101 180.874 808.143 180.792 808.189 180.708C808.62 179.924 809.161 179.204 809.794 178.571L809.794 178.571M807.884 181.318L809.794 178.571M809.794 178.571L819.078 169.287C819.079 169.287 819.079 169.287 819.079 169.287C820.799 167.573 823.108 166.582 825.535 166.516C827.962 166.45 830.321 167.315 832.131 168.932C832.22 169.012 832.299 169.085 832.374 169.159L832.374 169.159M809.794 178.571L832.374 169.159M832.374 169.159L832.379 169.164M832.374 169.159L832.379 169.164M832.379 169.164L832.508 169.288M832.379 169.164L832.508 169.288M832.508 169.288L832.624 169.407C832.625 169.408 832.625 169.408 832.626 169.409C834.351 171.203 835.304 173.601 835.28 176.089C835.257 178.578 834.259 180.959 832.5 182.72L832.508 169.288Z" stroke="#F3F3F3" stroke-width="1.81013"/>
</g>
<g opacity="0.1">
<path d="M764.989 229.483L764.909 229.287C764.274 227.723 763.261 226.339 761.96 225.261C760.66 224.183 759.113 223.444 757.458 223.108C755.803 222.773 754.09 222.853 752.473 223.341C750.856 223.829 749.384 224.709 748.19 225.903L748.19 225.903L738.908 235.184L738.907 235.185C737.073 237.013 736.002 239.47 735.911 242.059C735.834 244.246 736.462 246.39 737.685 248.18C738.07 247.667 738.491 247.181 738.946 246.727L764.989 229.483ZM764.989 229.483C765.757 231.502 765.866 233.704 765.314 235.775C762.906 234.164 760.034 233.362 757.118 233.506C753.77 233.672 750.603 235.075 748.23 237.443L748.229 237.444L738.946 246.727L764.989 229.483Z" stroke="white" stroke-width="1.81013"/>
<path d="M739.884 252.318L739.882 252.321C739.075 254.084 738.826 256.051 739.167 257.959C739.509 259.868 740.426 261.626 741.795 262.998C741.795 262.998 741.795 262.999 741.795 262.999L748.501 269.719L764.499 253.721L739.884 252.318ZM739.884 252.318C739.933 252.21 739.979 252.112 740.026 252.019C740.035 252.003 740.043 251.986 740.051 251.971C740.101 251.874 740.143 251.792 740.189 251.708C740.62 250.924 741.161 250.204 741.794 249.571L741.794 249.571M739.884 252.318L741.794 249.571M741.794 249.571L751.078 240.287C751.079 240.287 751.079 240.287 751.079 240.287C752.799 238.573 755.108 237.582 757.535 237.516C759.962 237.45 762.321 238.315 764.131 239.932C764.22 240.012 764.299 240.085 764.374 240.159L764.374 240.159M741.794 249.571L764.374 240.159M764.374 240.159L764.379 240.164M764.374 240.159L764.379 240.164M764.379 240.164L764.508 240.288M764.379 240.164L764.508 240.288M764.508 240.288L764.624 240.407C764.625 240.408 764.625 240.408 764.626 240.409C766.351 242.203 767.304 244.601 767.28 247.089C767.257 249.578 766.259 251.959 764.5 253.72L764.508 240.288Z" stroke="#F3F3F3" stroke-width="1.81013"/>
</g>
<g opacity="0.1">
<path d="M1205.99 228.483L1205.91 228.287C1205.27 226.723 1204.26 225.339 1202.96 224.261C1201.66 223.183 1200.11 222.444 1198.46 222.108C1196.8 221.773 1195.09 221.853 1193.47 222.341C1191.86 222.829 1190.38 223.709 1189.19 224.903L1189.19 224.903L1179.91 234.184L1179.91 234.185C1178.07 236.013 1177 238.47 1176.91 241.059C1176.83 243.246 1177.46 245.39 1178.69 247.18C1179.07 246.667 1179.49 246.181 1179.95 245.727L1205.99 228.483ZM1205.99 228.483C1206.76 230.502 1206.87 232.704 1206.31 234.775C1203.91 233.164 1201.03 232.362 1198.12 232.506C1194.77 232.672 1191.6 234.075 1189.23 236.443L1189.23 236.444L1179.95 245.727L1205.99 228.483Z" stroke="white" stroke-width="1.81013"/>
<path d="M1180.88 251.318L1180.88 251.321C1180.07 253.084 1179.83 255.051 1180.17 256.959C1180.51 258.868 1181.43 260.626 1182.8 261.998C1182.8 261.998 1182.8 261.999 1182.8 261.999L1189.5 268.719L1205.5 252.721L1180.88 251.318ZM1180.88 251.318C1180.93 251.21 1180.98 251.112 1181.03 251.019C1181.03 251.003 1181.04 250.986 1181.05 250.971C1181.1 250.874 1181.14 250.792 1181.19 250.708C1181.62 249.924 1182.16 249.204 1182.79 248.571L1182.79 248.571M1180.88 251.318L1182.79 248.571M1182.79 248.571L1192.08 239.287C1192.08 239.287 1192.08 239.287 1192.08 239.287C1193.8 237.573 1196.11 236.582 1198.54 236.516C1200.96 236.45 1203.32 237.315 1205.13 238.932C1205.22 239.012 1205.3 239.085 1205.37 239.159L1205.37 239.159M1182.79 248.571L1205.37 239.159M1205.37 239.159L1205.38 239.164M1205.37 239.159L1205.38 239.164M1205.38 239.164L1205.51 239.288M1205.38 239.164L1205.51 239.288M1205.51 239.288L1205.62 239.407C1205.62 239.408 1205.63 239.408 1205.63 239.409C1207.35 241.203 1208.3 243.601 1208.28 246.089C1208.26 248.578 1207.26 250.959 1205.5 252.72L1205.51 239.288Z" stroke="#F3F3F3" stroke-width="1.81013"/>
</g>
<g opacity="0.1">
<path d="M1434.99 179.483L1434.91 179.287C1434.27 177.723 1433.26 176.339 1431.96 175.261C1430.66 174.183 1429.11 173.444 1427.46 173.108C1425.8 172.773 1424.09 172.853 1422.47 173.341C1420.86 173.829 1419.38 174.709 1418.19 175.903L1418.19 175.903L1408.91 185.184L1408.91 185.185C1407.07 187.013 1406 189.47 1405.91 192.059C1405.83 194.246 1406.46 196.39 1407.69 198.18C1408.07 197.667 1408.49 197.181 1408.95 196.727L1434.99 179.483ZM1434.99 179.483C1435.76 181.502 1435.87 183.704 1435.31 185.775C1432.91 184.164 1430.03 183.362 1427.12 183.506C1423.77 183.672 1420.6 185.075 1418.23 187.443L1418.23 187.444L1408.95 196.727L1434.99 179.483Z" stroke="white" stroke-width="1.81013"/>
<path d="M1409.88 202.318L1409.88 202.321C1409.07 204.084 1408.83 206.051 1409.17 207.959C1409.51 209.868 1410.43 211.626 1411.8 212.998C1411.8 212.998 1411.8 212.999 1411.8 212.999L1418.5 219.719L1434.5 203.721L1409.88 202.318ZM1409.88 202.318C1409.93 202.21 1409.98 202.112 1410.03 202.019C1410.03 202.003 1410.04 201.986 1410.05 201.971C1410.1 201.874 1410.14 201.792 1410.19 201.708C1410.62 200.924 1411.16 200.204 1411.79 199.571L1411.79 199.571M1409.88 202.318L1411.79 199.571M1411.79 199.571L1421.08 190.287C1421.08 190.287 1421.08 190.287 1421.08 190.287C1422.8 188.573 1425.11 187.582 1427.54 187.516C1429.96 187.45 1432.32 188.315 1434.13 189.932C1434.22 190.012 1434.3 190.085 1434.37 190.159L1434.37 190.159M1411.79 199.571L1434.37 190.159M1434.37 190.159L1434.38 190.164M1434.37 190.159L1434.38 190.164M1434.38 190.164L1434.51 190.288M1434.38 190.164L1434.51 190.288M1434.51 190.288L1434.62 190.407C1434.62 190.408 1434.63 190.408 1434.63 190.409C1436.35 192.203 1437.3 194.601 1437.28 197.089C1437.26 199.578 1436.26 201.959 1434.5 203.72L1434.51 190.288Z" stroke="#F3F3F3" stroke-width="1.81013"/>
</g>
<g opacity="0.1">
<path d="M1252.99 36.4831L1252.91 36.2874C1252.27 34.7226 1251.26 33.3394 1249.96 32.2613C1248.66 31.1832 1247.11 30.4436 1245.46 30.1085C1243.8 29.7734 1242.09 29.8532 1240.47 30.3409C1238.86 30.8285 1237.38 31.7088 1236.19 32.9032L1236.19 32.9033L1226.91 42.1838L1226.91 42.1847C1225.07 44.0134 1224 46.4704 1223.91 49.0587C1223.83 51.2463 1224.46 53.3896 1225.69 55.18C1226.07 54.6667 1226.49 54.181 1226.95 53.727L1252.99 36.4831ZM1252.99 36.4831C1253.76 38.5019 1253.87 40.7038 1253.31 42.7752C1250.91 41.1642 1248.03 40.3617 1245.12 40.5062C1241.77 40.6721 1238.6 42.0749 1236.23 44.4428L1236.23 44.4435L1226.95 53.7266L1252.99 36.4831Z" stroke="white" stroke-width="1.81013"/>
<path d="M1227.88 59.3182L1227.88 59.3214C1227.07 61.084 1226.83 63.0511 1227.17 64.9594C1227.51 66.8676 1228.43 68.6258 1229.8 69.9985C1229.8 69.9985 1229.8 69.9985 1229.8 69.9986L1236.5 76.7194L1252.5 60.7207L1227.88 59.3182ZM1227.88 59.3182C1227.93 59.2098 1227.98 59.1118 1228.03 59.0191C1228.03 59.0025 1228.04 58.9864 1228.05 58.9707C1228.1 58.8742 1228.14 58.7915 1228.19 58.7084C1228.62 57.9238 1229.16 57.2043 1229.79 56.5715L1229.79 56.5712M1227.88 59.3182L1229.79 56.5712M1229.79 56.5712L1239.08 47.2872C1239.08 47.287 1239.08 47.2868 1239.08 47.2866C1240.8 45.573 1243.11 44.5817 1245.54 44.516C1247.96 44.4503 1250.32 45.3147 1252.13 46.9323C1252.22 47.0124 1252.3 47.0849 1252.37 47.1585L1252.37 47.1585M1229.79 56.5712L1252.37 47.1585M1252.37 47.1585L1252.38 47.1638M1252.37 47.1585L1252.38 47.1638M1252.38 47.1638L1252.51 47.2879M1252.38 47.1638L1252.51 47.2879M1252.51 47.2879L1252.62 47.4068C1252.62 47.4077 1252.63 47.4085 1252.63 47.4093C1254.35 49.2029 1255.3 51.601 1255.28 54.0891C1255.26 56.5782 1254.26 58.959 1252.5 60.7203L1252.51 47.2879Z" stroke="#F3F3F3" stroke-width="1.81013"/>
</g>
<g opacity="0.1">
<path d="M1282.99 170.483L1282.91 170.287C1282.27 168.723 1281.26 167.339 1279.96 166.261C1278.66 165.183 1277.11 164.444 1275.46 164.108C1273.8 163.773 1272.09 163.853 1270.47 164.341C1268.86 164.829 1267.38 165.709 1266.19 166.903L1266.19 166.903L1256.91 176.184L1256.91 176.185C1255.07 178.013 1254 180.47 1253.91 183.059C1253.83 185.246 1254.46 187.39 1255.69 189.18C1256.07 188.667 1256.49 188.181 1256.95 187.727L1282.99 170.483ZM1282.99 170.483C1283.76 172.502 1283.87 174.704 1283.31 176.775C1280.91 175.164 1278.03 174.362 1275.12 174.506C1271.77 174.672 1268.6 176.075 1266.23 178.443L1266.23 178.444L1256.95 187.727L1282.99 170.483Z" stroke="white" stroke-width="1.81013"/>
<path d="M1257.88 193.318L1257.88 193.321C1257.07 195.084 1256.83 197.051 1257.17 198.959C1257.51 200.868 1258.43 202.626 1259.8 203.998C1259.8 203.998 1259.8 203.999 1259.8 203.999L1266.5 210.719L1282.5 194.721L1257.88 193.318ZM1257.88 193.318C1257.93 193.21 1257.98 193.112 1258.03 193.019C1258.03 193.003 1258.04 192.986 1258.05 192.971C1258.1 192.874 1258.14 192.792 1258.19 192.708C1258.62 191.924 1259.16 191.204 1259.79 190.571L1259.79 190.571M1257.88 193.318L1259.79 190.571M1259.79 190.571L1269.08 181.287C1269.08 181.287 1269.08 181.287 1269.08 181.287C1270.8 179.573 1273.11 178.582 1275.54 178.516C1277.96 178.45 1280.32 179.315 1282.13 180.932C1282.22 181.012 1282.3 181.085 1282.37 181.159L1282.37 181.159M1259.79 190.571L1282.37 181.159M1282.37 181.159L1282.38 181.164M1282.37 181.159L1282.38 181.164M1282.38 181.164L1282.51 181.288M1282.38 181.164L1282.51 181.288M1282.51 181.288L1282.62 181.407C1282.62 181.408 1282.63 181.408 1282.63 181.409C1284.35 183.203 1285.3 185.601 1285.28 188.089C1285.26 190.578 1284.26 192.959 1282.5 194.72L1282.51 181.288Z" stroke="#F3F3F3" stroke-width="1.81013"/>
</g>
<g opacity="0.1">
<path d="M1122.99 160.483L1122.91 160.287C1122.27 158.723 1121.26 157.339 1119.96 156.261C1118.66 155.183 1117.11 154.444 1115.46 154.108C1113.8 153.773 1112.09 153.853 1110.47 154.341C1108.86 154.829 1107.38 155.709 1106.19 156.903L1106.19 156.903L1096.91 166.184L1096.91 166.185C1095.07 168.013 1094 170.47 1093.91 173.059C1093.83 175.246 1094.46 177.39 1095.69 179.18C1096.07 178.667 1096.49 178.181 1096.95 177.727L1122.99 160.483ZM1122.99 160.483C1123.76 162.502 1123.87 164.704 1123.31 166.775C1120.91 165.164 1118.03 164.362 1115.12 164.506C1111.77 164.672 1108.6 166.075 1106.23 168.443L1106.23 168.444L1096.95 177.727L1122.99 160.483Z" stroke="white" stroke-width="1.81013"/>
<path d="M1097.88 183.318L1097.88 183.321C1097.07 185.084 1096.83 187.051 1097.17 188.959C1097.51 190.868 1098.43 192.626 1099.8 193.998C1099.8 193.998 1099.8 193.999 1099.8 193.999L1106.5 200.719L1122.5 184.721L1097.88 183.318ZM1097.88 183.318C1097.93 183.21 1097.98 183.112 1098.03 183.019C1098.03 183.003 1098.04 182.986 1098.05 182.971C1098.1 182.874 1098.14 182.792 1098.19 182.708C1098.62 181.924 1099.16 181.204 1099.79 180.571L1099.79 180.571M1097.88 183.318L1099.79 180.571M1099.79 180.571L1109.08 171.287C1109.08 171.287 1109.08 171.287 1109.08 171.287C1110.8 169.573 1113.11 168.582 1115.54 168.516C1117.96 168.45 1120.32 169.315 1122.13 170.932C1122.22 171.012 1122.3 171.085 1122.37 171.159L1122.37 171.159M1099.79 180.571L1122.37 171.159M1122.37 171.159L1122.38 171.164M1122.37 171.159L1122.38 171.164M1122.38 171.164L1122.51 171.288M1122.38 171.164L1122.51 171.288M1122.51 171.288L1122.62 171.407C1122.62 171.408 1122.63 171.408 1122.63 171.409C1124.35 173.203 1125.3 175.601 1125.28 178.089C1125.26 180.578 1124.26 182.959 1122.5 184.72L1122.51 171.288Z" stroke="#F3F3F3" stroke-width="1.81013"/>
</g>
<g opacity="0.1">
<path d="M1435.99 5.48308L1435.91 5.28741C1435.27 3.72259 1434.26 2.33943 1432.96 1.2613C1431.66 0.183165 1430.11 -0.556422 1428.46 -0.891504C1426.8 -1.22659 1425.09 -1.14676 1423.47 -0.659114C1421.86 -0.17147 1420.38 0.708813 1419.19 1.90323L1419.19 1.90333L1409.91 11.1838L1409.91 11.1847C1408.07 13.0134 1407 15.4704 1406.91 18.0587C1406.83 20.2463 1407.46 22.3896 1408.69 24.18C1409.07 23.6667 1409.49 23.181 1409.95 22.727L1435.99 5.48308ZM1435.99 5.48308C1436.76 7.50194 1436.87 9.70377 1436.31 11.7752C1433.91 10.1642 1431.03 9.36166 1428.12 9.50616C1424.77 9.67208 1421.6 11.0749 1419.23 13.4428L1419.23 13.4435L1409.95 22.7266L1435.99 5.48308Z" stroke="white" stroke-width="1.81013"/>
<path d="M1410.88 28.3182L1410.88 28.3214C1410.07 30.084 1409.83 32.0511 1410.17 33.9594C1410.51 35.8676 1411.43 37.6258 1412.8 38.9985C1412.8 38.9985 1412.8 38.9985 1412.8 38.9986L1419.5 45.7194L1435.5 29.7207L1410.88 28.3182ZM1410.88 28.3182C1410.93 28.2098 1410.98 28.1118 1411.03 28.0191C1411.03 28.0025 1411.04 27.9864 1411.05 27.9707C1411.1 27.8742 1411.14 27.7915 1411.19 27.7084C1411.62 26.9238 1412.16 26.2043 1412.79 25.5715L1412.79 25.5712M1410.88 28.3182L1412.79 25.5712M1412.79 25.5712L1422.08 16.2872C1422.08 16.287 1422.08 16.2868 1422.08 16.2866C1423.8 14.573 1426.11 13.5817 1428.54 13.516C1430.96 13.4503 1433.32 14.3147 1435.13 15.9323C1435.22 16.0124 1435.3 16.0849 1435.37 16.1585L1435.37 16.1585M1412.79 25.5712L1435.37 16.1585M1435.37 16.1585L1435.38 16.1638M1435.37 16.1585L1435.38 16.1638M1435.38 16.1638L1435.51 16.2879M1435.38 16.1638L1435.51 16.2879M1435.51 16.2879L1435.62 16.4068C1435.62 16.4077 1435.63 16.4085 1435.63 16.4093C1437.35 18.2029 1438.3 20.601 1438.28 23.0891C1438.26 25.5782 1437.26 27.959 1435.5 29.7203L1435.51 16.2879Z" stroke="#F3F3F3" stroke-width="1.81013"/>
</g>
<g opacity="0.1">
<path d="M1367.99 76.4831L1367.91 76.2874C1367.27 74.7226 1366.26 73.3394 1364.96 72.2613C1363.66 71.1832 1362.11 70.4436 1360.46 70.1085C1358.8 69.7734 1357.09 69.8532 1355.47 70.3409C1353.86 70.8285 1352.38 71.7088 1351.19 72.9032L1351.19 72.9033L1341.91 82.1838L1341.91 82.1847C1340.07 84.0134 1339 86.4704 1338.91 89.0587C1338.83 91.2463 1339.46 93.3896 1340.69 95.18C1341.07 94.6667 1341.49 94.181 1341.95 93.727L1367.99 76.4831ZM1367.99 76.4831C1368.76 78.5019 1368.87 80.7038 1368.31 82.7752C1365.91 81.1642 1363.03 80.3617 1360.12 80.5062C1356.77 80.6721 1353.6 82.0749 1351.23 84.4428L1351.23 84.4435L1341.95 93.7266L1367.99 76.4831Z" stroke="white" stroke-width="1.81013"/>
<path d="M1342.88 99.3182L1342.88 99.3214C1342.07 101.084 1341.83 103.051 1342.17 104.959C1342.51 106.868 1343.43 108.626 1344.8 109.998C1344.8 109.998 1344.8 109.999 1344.8 109.999L1351.5 116.719L1367.5 100.721L1342.88 99.3182ZM1342.88 99.3182C1342.93 99.2098 1342.98 99.1118 1343.03 99.0191C1343.03 99.0025 1343.04 98.9864 1343.05 98.9707C1343.1 98.8742 1343.14 98.7915 1343.19 98.7084C1343.62 97.9238 1344.16 97.2043 1344.79 96.5715L1344.79 96.5712M1342.88 99.3182L1344.79 96.5712M1344.79 96.5712L1354.08 87.2872C1354.08 87.287 1354.08 87.2868 1354.08 87.2866C1355.8 85.573 1358.11 84.5817 1360.54 84.516C1362.96 84.4503 1365.32 85.3147 1367.13 86.9323C1367.22 87.0124 1367.3 87.0849 1367.37 87.1585L1367.37 87.1585M1344.79 96.5712L1367.37 87.1585M1367.37 87.1585L1367.38 87.1638M1367.37 87.1585L1367.38 87.1638M1367.38 87.1638L1367.51 87.2879M1367.38 87.1638L1367.51 87.2879M1367.51 87.2879L1367.62 87.4068C1367.62 87.4077 1367.63 87.4085 1367.63 87.4093C1369.35 89.2029 1370.3 91.601 1370.28 94.0891C1370.26 96.5782 1369.26 98.959 1367.5 100.72L1367.51 87.2879Z" stroke="#F3F3F3" stroke-width="1.81013"/>
</g>
<g opacity="0.1">
<path d="M919.989 120.483L919.909 120.287C919.274 118.723 918.261 117.339 916.96 116.261C915.66 115.183 914.113 114.444 912.458 114.108C910.803 113.773 909.09 113.853 907.473 114.341C905.856 114.829 904.384 115.709 903.19 116.903L903.19 116.903L893.908 126.184L893.907 126.185C892.073 128.013 891.002 130.47 890.911 133.059C890.834 135.246 891.462 137.39 892.685 139.18C893.07 138.667 893.491 138.181 893.946 137.727L919.989 120.483ZM919.989 120.483C920.757 122.502 920.866 124.704 920.314 126.775C917.906 125.164 915.034 124.362 912.118 124.506C908.77 124.672 905.603 126.075 903.23 128.443L903.229 128.444L893.946 137.727L919.989 120.483Z" stroke="white" stroke-width="1.81013"/>
<path d="M894.884 143.318L894.882 143.321C894.075 145.084 893.826 147.051 894.167 148.959C894.509 150.868 895.426 152.626 896.795 153.998C896.795 153.998 896.795 153.999 896.795 153.999L903.501 160.719L919.499 144.721L894.884 143.318ZM894.884 143.318C894.933 143.21 894.979 143.112 895.026 143.019C895.035 143.003 895.043 142.986 895.051 142.971C895.101 142.874 895.143 142.792 895.189 142.708C895.62 141.924 896.161 141.204 896.794 140.571L896.794 140.571M894.884 143.318L896.794 140.571M896.794 140.571L906.078 131.287C906.079 131.287 906.079 131.287 906.079 131.287C907.799 129.573 910.108 128.582 912.535 128.516C914.962 128.45 917.321 129.315 919.131 130.932C919.22 131.012 919.299 131.085 919.374 131.159L919.374 131.159M896.794 140.571L919.374 131.159M919.374 131.159L919.379 131.164M919.374 131.159L919.379 131.164M919.379 131.164L919.508 131.288M919.379 131.164L919.508 131.288M919.508 131.288L919.624 131.407C919.625 131.408 919.625 131.408 919.626 131.409C921.351 133.203 922.304 135.601 922.28 138.089C922.257 140.578 921.259 142.959 919.5 144.72L919.508 131.288Z" stroke="#F3F3F3" stroke-width="1.81013"/>
</g>
<g opacity="0.1">
<path d="M1148.99 71.4831L1148.91 71.2874C1148.27 69.7226 1147.26 68.3394 1145.96 67.2613C1144.66 66.1832 1143.11 65.4436 1141.46 65.1085C1139.8 64.7734 1138.09 64.8532 1136.47 65.3409C1134.86 65.8285 1133.38 66.7088 1132.19 67.9032L1132.19 67.9033L1122.91 77.1838L1122.91 77.1847C1121.07 79.0134 1120 81.4704 1119.91 84.0587C1119.83 86.2463 1120.46 88.3896 1121.69 90.18C1122.07 89.6667 1122.49 89.181 1122.95 88.727L1148.99 71.4831ZM1148.99 71.4831C1149.76 73.5019 1149.87 75.7038 1149.31 77.7752C1146.91 76.1642 1144.03 75.3617 1141.12 75.5062C1137.77 75.6721 1134.6 77.0749 1132.23 79.4428L1132.23 79.4435L1122.95 88.7266L1148.99 71.4831Z" stroke="white" stroke-width="1.81013"/>
<path d="M1123.88 94.3182L1123.88 94.3214C1123.07 96.084 1122.83 98.0511 1123.17 99.9594C1123.51 101.868 1124.43 103.626 1125.8 104.998C1125.8 104.998 1125.8 104.999 1125.8 104.999L1132.5 111.719L1148.5 95.7207L1123.88 94.3182ZM1123.88 94.3182C1123.93 94.2098 1123.98 94.1118 1124.03 94.0191C1124.03 94.0025 1124.04 93.9864 1124.05 93.9707C1124.1 93.8742 1124.14 93.7915 1124.19 93.7084C1124.62 92.9238 1125.16 92.2043 1125.79 91.5715L1125.79 91.5712M1123.88 94.3182L1125.79 91.5712M1125.79 91.5712L1135.08 82.2872C1135.08 82.287 1135.08 82.2868 1135.08 82.2866C1136.8 80.573 1139.11 79.5817 1141.54 79.516C1143.96 79.4503 1146.32 80.3147 1148.13 81.9323C1148.22 82.0124 1148.3 82.0849 1148.37 82.1585L1148.37 82.1585M1125.79 91.5712L1148.37 82.1585M1148.37 82.1585L1148.38 82.1638M1148.37 82.1585L1148.38 82.1638M1148.38 82.1638L1148.51 82.2879M1148.38 82.1638L1148.51 82.2879M1148.51 82.2879L1148.62 82.4068C1148.62 82.4077 1148.63 82.4085 1148.63 82.4093C1150.35 84.2029 1151.3 86.601 1151.28 89.0891C1151.26 91.5782 1150.26 93.959 1148.5 95.7203L1148.51 82.2879Z" stroke="#F3F3F3" stroke-width="1.81013"/>
</g>
<g opacity="0.1">
<path d="M996.989 62.4831L996.909 62.2874C996.274 60.7226 995.261 59.3394 993.96 58.2613C992.66 57.1832 991.113 56.4436 989.458 56.1085C987.803 55.7734 986.09 55.8532 984.473 56.3409C982.856 56.8285 981.384 57.7088 980.19 58.9032L980.19 58.9033L970.908 68.1838L970.907 68.1847C969.073 70.0134 968.002 72.4704 967.911 75.0587C967.834 77.2463 968.462 79.3896 969.685 81.18C970.07 80.6667 970.491 80.181 970.946 79.727L996.989 62.4831ZM996.989 62.4831C997.757 64.5019 997.866 66.7038 997.314 68.7752C994.906 67.1642 992.034 66.3617 989.118 66.5062C985.77 66.6721 982.603 68.0749 980.23 70.4428L980.229 70.4435L970.946 79.7266L996.989 62.4831Z" stroke="white" stroke-width="1.81013"/>
<path d="M971.884 85.3182L971.882 85.3214C971.075 87.084 970.826 89.0511 971.167 90.9594C971.509 92.8676 972.426 94.6258 973.795 95.9985C973.795 95.9985 973.795 95.9985 973.795 95.9986L980.501 102.719L996.499 86.7207L971.884 85.3182ZM971.884 85.3182C971.933 85.2098 971.979 85.1118 972.026 85.0191C972.035 85.0025 972.043 84.9864 972.051 84.9707C972.101 84.8742 972.143 84.7915 972.189 84.7084C972.62 83.9238 973.161 83.2043 973.794 82.5715L973.794 82.5712M971.884 85.3182L973.794 82.5712M973.794 82.5712L983.078 73.2872C983.079 73.287 983.079 73.2868 983.079 73.2866C984.799 71.573 987.108 70.5817 989.535 70.516C991.962 70.4503 994.321 71.3147 996.131 72.9323C996.22 73.0124 996.299 73.0849 996.374 73.1585L996.374 73.1585M973.794 82.5712L996.374 73.1585M996.374 73.1585L996.379 73.1638M996.374 73.1585L996.379 73.1638M996.379 73.1638L996.508 73.2879M996.379 73.1638L996.508 73.2879M996.508 73.2879L996.624 73.4068C996.625 73.4077 996.625 73.4085 996.626 73.4093C998.351 75.2029 999.304 77.601 999.28 80.0891C999.257 82.5782 998.259 84.959 996.5 86.7203L996.508 73.2879Z" stroke="#F3F3F3" stroke-width="1.81013"/>
</g>
<g opacity="0.1">
<path d="M836.989 52.4831L836.909 52.2874C836.274 50.7226 835.261 49.3394 833.96 48.2613C832.66 47.1832 831.113 46.4436 829.458 46.1085C827.803 45.7734 826.09 45.8532 824.473 46.3409C822.856 46.8285 821.384 47.7088 820.19 48.9032L820.19 48.9033L810.908 58.1838L810.907 58.1847C809.073 60.0134 808.002 62.4704 807.911 65.0587C807.834 67.2463 808.462 69.3896 809.685 71.18C810.07 70.6667 810.491 70.181 810.946 69.727L836.989 52.4831ZM836.989 52.4831C837.757 54.5019 837.866 56.7038 837.314 58.7752C834.906 57.1642 832.034 56.3617 829.118 56.5062C825.77 56.6721 822.603 58.0749 820.23 60.4428L820.229 60.4435L810.946 69.7266L836.989 52.4831Z" stroke="white" stroke-width="1.81013"/>
<path d="M811.884 75.3182L811.882 75.3214C811.075 77.084 810.826 79.0511 811.167 80.9594C811.509 82.8676 812.426 84.6258 813.795 85.9985C813.795 85.9985 813.795 85.9985 813.795 85.9986L820.501 92.7194L836.499 76.7207L811.884 75.3182ZM811.884 75.3182C811.933 75.2098 811.979 75.1118 812.026 75.0191C812.035 75.0025 812.043 74.9864 812.051 74.9707C812.101 74.8742 812.143 74.7915 812.189 74.7084C812.62 73.9238 813.161 73.2043 813.794 72.5715L813.794 72.5712M811.884 75.3182L813.794 72.5712M813.794 72.5712L823.078 63.2872C823.079 63.287 823.079 63.2868 823.079 63.2866C824.799 61.573 827.108 60.5817 829.535 60.516C831.962 60.4503 834.321 61.3147 836.131 62.9323C836.22 63.0124 836.299 63.0849 836.374 63.1585L836.374 63.1585M813.794 72.5712L836.374 63.1585M836.374 63.1585L836.379 63.1638M836.374 63.1585L836.379 63.1638M836.379 63.1638L836.508 63.2879M836.379 63.1638L836.508 63.2879M836.508 63.2879L836.624 63.4068C836.625 63.4077 836.625 63.4085 836.626 63.4093C838.351 65.2029 839.304 67.601 839.28 70.0891C839.257 72.5782 838.259 74.959 836.5 76.7203L836.508 63.2879Z" stroke="#F3F3F3" stroke-width="1.81013"/>
</g>
<g opacity="0.1">
<path d="M1056.88 -8.68182L1056.88 -8.67864C1056.07 -6.91605 1055.83 -4.94886 1056.17 -3.04059C1056.51 -1.13237 1057.43 0.625813 1058.8 1.99846C1058.8 1.9985 1058.8 1.99854 1058.8 1.99858L1065.5 8.71936L1081.5 -7.2793L1056.88 -8.68182ZM1056.88 -8.68182C1056.93 -8.79019 1056.98 -8.88824 1057.03 -8.98092C1057.03 -8.99747 1057.04 -9.01359 1057.05 -9.02935C1057.1 -9.12577 1057.14 -9.2085 1057.19 -9.29161C1057.62 -10.0762 1058.16 -10.7957 1058.79 -11.4285L1058.79 -11.4288M1056.88 -8.68182L1058.79 -11.4288M1058.79 -11.4288L1068.08 -20.7128C1068.08 -20.713 1068.08 -20.7132 1068.08 -20.7134C1069.8 -22.427 1072.11 -23.4183 1074.54 -23.484C1076.96 -23.5497 1079.32 -22.6853 1081.13 -21.0677C1081.22 -20.9876 1081.3 -20.9151 1081.37 -20.8415L1081.37 -20.8415M1058.79 -11.4288L1081.37 -20.8415M1081.37 -20.8415L1081.38 -20.8362M1081.37 -20.8415L1081.38 -20.8362M1081.38 -20.8362L1081.51 -20.7121M1081.38 -20.8362L1081.51 -20.7121M1081.51 -20.7121L1081.62 -20.5932C1081.62 -20.5923 1081.63 -20.5915 1081.63 -20.5907C1083.35 -18.7971 1084.3 -16.399 1084.28 -13.9109C1084.26 -11.4218 1083.26 -9.04102 1081.5 -7.2797L1081.51 -20.7121Z" stroke="#F3F3F3" stroke-width="1.81013"/>
</g>
</svg>
